<svg width="159" height="40" viewBox="0 0 159 40" fill="none" xmlns="http://www.w3.org/2000/svg">
<path d="M13.44 31L8.768 22.52H7.456V31H1.984V8.536H11.168C12.9387 8.536 14.4427 8.84533 15.68 9.464C16.9387 10.0827 17.8773 10.936 18.496 12.024C19.1147 13.0907 19.424 14.2853 19.424 15.608C19.424 17.1013 18.9973 18.4347 18.144 19.608C17.312 20.7813 16.0747 21.6133 14.432 22.104L19.616 31H13.44ZM7.456 18.648H10.848C11.8507 18.648 12.5973 18.4027 13.088 17.912C13.6 17.4213 13.856 16.728 13.856 15.832C13.856 14.9787 13.6 14.3067 13.088 13.816C12.5973 13.3253 11.8507 13.08 10.848 13.08H7.456V18.648ZM21.771 22.04C21.771 20.2053 22.1123 18.5947 22.795 17.208C23.499 15.8213 24.4483 14.7547 25.643 14.008C26.8377 13.2613 28.171 12.888 29.643 12.888C30.9017 12.888 32.0003 13.144 32.939 13.656C33.899 14.168 34.635 14.84 35.147 15.672V13.144H40.619V31H35.147V28.472C34.6137 29.304 33.867 29.976 32.907 30.488C31.9683 31 30.8697 31.256 29.611 31.256C28.1603 31.256 26.8377 30.8827 25.643 30.136C24.4483 29.368 23.499 28.2907 22.795 26.904C22.1123 25.496 21.771 23.8747 21.771 22.04ZM35.147 22.072C35.147 20.7067 34.763 19.6293 33.995 18.84C33.2483 18.0507 32.331 17.656 31.243 17.656C30.155 17.656 29.227 18.0507 28.459 18.84C27.7123 19.608 27.339 20.6747 27.339 22.04C27.339 23.4053 27.7123 24.4933 28.459 25.304C29.227 26.0933 30.155 26.488 31.243 26.488C32.331 26.488 33.2483 26.0933 33.995 25.304C34.763 24.5147 35.147 23.4373 35.147 22.072ZM51.8418 31.256C50.2844 31.256 48.8978 30.9893 47.6818 30.456C46.4658 29.9227 45.5058 29.1973 44.8018 28.28C44.0978 27.3413 43.7031 26.296 43.6178 25.144H49.0258C49.0898 25.7627 49.3778 26.264 49.8898 26.648C50.4018 27.032 51.0311 27.224 51.7778 27.224C52.4604 27.224 52.9831 27.096 53.3458 26.84C53.7298 26.5627 53.9218 26.2107 53.9218 25.784C53.9218 25.272 53.6551 24.8987 53.1218 24.664C52.5884 24.408 51.7244 24.1307 50.5298 23.832C49.2498 23.5333 48.1831 23.224 47.3298 22.904C46.4764 22.5627 45.7404 22.04 45.1218 21.336C44.5031 20.6107 44.1938 19.64 44.1938 18.424C44.1938 17.4 44.4711 16.472 45.0258 15.64C45.6018 14.7867 46.4338 14.1147 47.5218 13.624C48.6311 13.1333 49.9431 12.888 51.4578 12.888C53.6978 12.888 55.4578 13.4427 56.7378 14.552C58.0391 15.6613 58.7858 17.1333 58.9778 18.968H53.9218C53.8364 18.3493 53.5591 17.8587 53.0898 17.496C52.6418 17.1333 52.0444 16.952 51.2978 16.952C50.6578 16.952 50.1671 17.08 49.8258 17.336C49.4844 17.5707 49.3138 17.9013 49.3138 18.328C49.3138 18.84 49.5804 19.224 50.1138 19.48C50.6684 19.736 51.5218 19.992 52.6738 20.248C53.9964 20.5893 55.0738 20.9307 55.9058 21.272C56.7378 21.592 57.4631 22.1253 58.0818 22.872C58.7218 23.5973 59.0524 24.5787 59.0738 25.816C59.0738 26.8613 58.7751 27.8 58.1778 28.632C57.6018 29.4427 56.7591 30.0827 55.6498 30.552C54.5618 31.0213 53.2924 31.256 51.8418 31.256ZM72.3735 26.36V31H69.5895C67.6055 31 66.0588 30.52 64.9495 29.56C63.8402 28.5787 63.2855 26.9893 63.2855 24.792V17.688H61.1095V13.144H63.2855V8.792H68.7575V13.144H72.3415V17.688H68.7575V24.856C68.7575 25.3893 68.8855 25.7733 69.1415 26.008C69.3975 26.2427 69.8242 26.36 70.4215 26.36H72.3735ZM80.8935 16.12C81.5335 15.1387 82.3335 14.3707 83.2935 13.816C84.2535 13.24 85.3202 12.952 86.4935 12.952V18.744H84.9895C83.6242 18.744 82.6002 19.0427 81.9175 19.64C81.2348 20.216 80.8935 21.24 80.8935 22.712V31H75.4215V13.144H80.8935V16.12ZM105.941 21.784C105.941 22.296 105.909 22.8293 105.845 23.384H93.461C93.5463 24.4933 93.8983 25.3467 94.517 25.944C95.157 26.52 95.9357 26.808 96.853 26.808C98.2183 26.808 99.1677 26.232 99.701 25.08H105.525C105.226 26.2533 104.682 27.3093 103.893 28.248C103.125 29.1867 102.154 29.9227 100.981 30.456C99.8077 30.9893 98.4957 31.256 97.045 31.256C95.2957 31.256 93.7383 30.8827 92.373 30.136C91.0077 29.3893 89.941 28.3227 89.173 26.936C88.405 25.5493 88.021 23.928 88.021 22.072C88.021 20.216 88.3943 18.5947 89.141 17.208C89.909 15.8213 90.9757 14.7547 92.341 14.008C93.7063 13.2613 95.2743 12.888 97.045 12.888C98.773 12.888 100.309 13.2507 101.653 13.976C102.997 14.7013 104.042 15.736 104.789 17.08C105.557 18.424 105.941 19.992 105.941 21.784ZM100.341 20.344C100.341 19.4053 100.021 18.6587 99.381 18.104C98.741 17.5493 97.941 17.272 96.981 17.272C96.0637 17.272 95.285 17.5387 94.645 18.072C94.0263 18.6053 93.6423 19.3627 93.493 20.344H100.341ZM111.58 11.288C110.62 11.288 109.83 11.0107 109.212 10.456C108.614 9.88 108.316 9.176 108.316 8.344C108.316 7.49067 108.614 6.78667 109.212 6.232C109.83 5.656 110.62 5.368 111.58 5.368C112.518 5.368 113.286 5.656 113.884 6.232C114.502 6.78667 114.812 7.49067 114.812 8.344C114.812 9.176 114.502 9.88 113.884 10.456C113.286 11.0107 112.518 11.288 111.58 11.288ZM114.3 13.144V31H108.828V13.144H114.3ZM117.177 22.04C117.177 20.2053 117.519 18.5947 118.201 17.208C118.905 15.8213 119.855 14.7547 121.049 14.008C122.244 13.2613 123.577 12.888 125.049 12.888C126.308 12.888 127.407 13.144 128.345 13.656C129.305 14.168 130.041 14.84 130.553 15.672V13.144H136.025V31H130.553V28.472C130.02 29.304 129.273 29.976 128.313 30.488C127.375 31 126.276 31.256 125.017 31.256C123.567 31.256 122.244 30.8827 121.049 30.136C119.855 29.368 118.905 28.2907 118.201 26.904C117.519 25.496 117.177 23.8747 117.177 22.04ZM130.553 22.072C130.553 20.7067 130.169 19.6293 129.401 18.84C128.655 18.0507 127.737 17.656 126.649 17.656C125.561 17.656 124.633 18.0507 123.865 18.84C123.119 19.608 122.745 20.6747 122.745 22.04C122.745 23.4053 123.119 24.4933 123.865 25.304C124.633 26.0933 125.561 26.488 126.649 26.488C127.737 26.488 128.655 26.0933 129.401 25.304C130.169 24.5147 130.553 23.4373 130.553 22.072ZM156.208 22.264H150.64V27.96H145.456V22.264H139.888V17.368H145.456V11.64H150.64V17.368H156.208V22.264Z" fill="#EC4D23"/>
</svg>
